<mxfile host="app.diagrams.net" agent="Mozilla/5.0 (Windows NT 10.0; Win64; x64) AppleWebKit/537.36 (KHTML, like Gecko) Chrome/127.0.0.0 Safari/537.36" version="24.7.7">
  <diagram name="Page-1" id="4Qoc6TQdb6o_q26tzG4L">
    <mxGraphModel grid="1" page="1" gridSize="10" guides="1" tooltips="1" connect="1" arrows="1" fold="1" pageScale="1" pageWidth="850" pageHeight="1100" math="0" shadow="0">
      <root>
        <mxCell id="0" />
        <mxCell id="1" parent="0" />
        <mxCell id="S-cmoG2ieqaU_YxU0t9z-10" style="edgeStyle=orthogonalEdgeStyle;rounded=0;orthogonalLoop=1;jettySize=auto;html=1;exitX=0.5;exitY=0;exitDx=0;exitDy=0;entryX=0.5;entryY=1;entryDx=0;entryDy=0;" edge="1" parent="1" source="S-cmoG2ieqaU_YxU0t9z-1" target="S-cmoG2ieqaU_YxU0t9z-4">
          <mxGeometry relative="1" as="geometry" />
        </mxCell>
        <mxCell id="S-cmoG2ieqaU_YxU0t9z-11" style="edgeStyle=orthogonalEdgeStyle;rounded=0;orthogonalLoop=1;jettySize=auto;html=1;exitX=1;exitY=0.5;exitDx=0;exitDy=0;entryX=0.5;entryY=1;entryDx=0;entryDy=0;" edge="1" parent="1" source="S-cmoG2ieqaU_YxU0t9z-1" target="S-cmoG2ieqaU_YxU0t9z-2">
          <mxGeometry relative="1" as="geometry" />
        </mxCell>
        <mxCell id="S-cmoG2ieqaU_YxU0t9z-12" style="edgeStyle=orthogonalEdgeStyle;rounded=0;orthogonalLoop=1;jettySize=auto;html=1;exitX=1;exitY=0.5;exitDx=0;exitDy=0;entryX=0.5;entryY=1;entryDx=0;entryDy=0;" edge="1" parent="1" source="S-cmoG2ieqaU_YxU0t9z-1" target="S-cmoG2ieqaU_YxU0t9z-7">
          <mxGeometry relative="1" as="geometry" />
        </mxCell>
        <mxCell id="S-cmoG2ieqaU_YxU0t9z-13" style="edgeStyle=orthogonalEdgeStyle;rounded=0;orthogonalLoop=1;jettySize=auto;html=1;exitX=0;exitY=0.5;exitDx=0;exitDy=0;entryX=0.5;entryY=1;entryDx=0;entryDy=0;" edge="1" parent="1" source="S-cmoG2ieqaU_YxU0t9z-1" target="S-cmoG2ieqaU_YxU0t9z-5">
          <mxGeometry relative="1" as="geometry" />
        </mxCell>
        <mxCell id="S-cmoG2ieqaU_YxU0t9z-1" value="&lt;font style=&quot;font-size: 15px;&quot;&gt;&lt;b&gt;Playwright&lt;/b&gt;&lt;/font&gt;" style="rounded=1;whiteSpace=wrap;html=1;" vertex="1" parent="1">
          <mxGeometry x="360" y="810" width="120" height="60" as="geometry" />
        </mxCell>
        <mxCell id="U21YtgEmPUKUvigjnbzT-9" style="edgeStyle=orthogonalEdgeStyle;rounded=0;orthogonalLoop=1;jettySize=auto;html=1;exitX=0.5;exitY=0;exitDx=0;exitDy=0;" edge="1" parent="1" source="S-cmoG2ieqaU_YxU0t9z-2">
          <mxGeometry relative="1" as="geometry">
            <mxPoint x="420" y="530" as="targetPoint" />
          </mxGeometry>
        </mxCell>
        <mxCell id="S-cmoG2ieqaU_YxU0t9z-2" value="&lt;b&gt;&lt;font style=&quot;font-size: 15px;&quot;&gt;Page n&lt;/font&gt;&lt;/b&gt;" style="rounded=1;whiteSpace=wrap;html=1;" vertex="1" parent="1">
          <mxGeometry x="560" y="620" width="120" height="60" as="geometry" />
        </mxCell>
        <mxCell id="S-cmoG2ieqaU_YxU0t9z-3" value="&lt;font style=&quot;font-size: 15px;&quot;&gt;&lt;b&gt;Testscript&lt;/b&gt;&lt;/font&gt;" style="rounded=1;whiteSpace=wrap;html=1;" vertex="1" parent="1">
          <mxGeometry x="360" y="340" width="120" height="60" as="geometry" />
        </mxCell>
        <mxCell id="S-cmoG2ieqaU_YxU0t9z-19" style="edgeStyle=orthogonalEdgeStyle;rounded=0;orthogonalLoop=1;jettySize=auto;html=1;exitX=0.5;exitY=0;exitDx=0;exitDy=0;" edge="1" parent="1" source="S-cmoG2ieqaU_YxU0t9z-4">
          <mxGeometry relative="1" as="geometry">
            <mxPoint x="420.2857142857142" y="619.5714285714287" as="targetPoint" />
          </mxGeometry>
        </mxCell>
        <mxCell id="U21YtgEmPUKUvigjnbzT-8" style="edgeStyle=orthogonalEdgeStyle;rounded=0;orthogonalLoop=1;jettySize=auto;html=1;exitX=0.5;exitY=0;exitDx=0;exitDy=0;" edge="1" parent="1" source="S-cmoG2ieqaU_YxU0t9z-4">
          <mxGeometry relative="1" as="geometry">
            <mxPoint x="420" y="530" as="targetPoint" />
          </mxGeometry>
        </mxCell>
        <mxCell id="U21YtgEmPUKUvigjnbzT-14" style="edgeStyle=orthogonalEdgeStyle;rounded=0;orthogonalLoop=1;jettySize=auto;html=1;exitX=1;exitY=0.25;exitDx=0;exitDy=0;entryX=0;entryY=0.25;entryDx=0;entryDy=0;" edge="1" parent="1" source="S-cmoG2ieqaU_YxU0t9z-4" target="S-cmoG2ieqaU_YxU0t9z-2">
          <mxGeometry relative="1" as="geometry" />
        </mxCell>
        <mxCell id="S-cmoG2ieqaU_YxU0t9z-4" value="&lt;b&gt;&lt;font style=&quot;font-size: 15px;&quot;&gt;Page 2&lt;/font&gt;&lt;/b&gt;" style="rounded=1;whiteSpace=wrap;html=1;" vertex="1" parent="1">
          <mxGeometry x="360" y="620" width="120" height="60" as="geometry" />
        </mxCell>
        <mxCell id="U21YtgEmPUKUvigjnbzT-7" style="edgeStyle=orthogonalEdgeStyle;rounded=0;orthogonalLoop=1;jettySize=auto;html=1;exitX=0.5;exitY=0;exitDx=0;exitDy=0;entryX=0.5;entryY=1;entryDx=0;entryDy=0;" edge="1" parent="1" source="S-cmoG2ieqaU_YxU0t9z-5" target="U21YtgEmPUKUvigjnbzT-1">
          <mxGeometry relative="1" as="geometry" />
        </mxCell>
        <mxCell id="S-cmoG2ieqaU_YxU0t9z-5" value="&lt;b&gt;&lt;font style=&quot;font-size: 15px;&quot;&gt;Page 1&lt;/font&gt;&lt;/b&gt;" style="rounded=1;whiteSpace=wrap;html=1;" vertex="1" parent="1">
          <mxGeometry x="160" y="620" width="120" height="60" as="geometry" />
        </mxCell>
        <mxCell id="U21YtgEmPUKUvigjnbzT-10" style="edgeStyle=orthogonalEdgeStyle;rounded=0;orthogonalLoop=1;jettySize=auto;html=1;exitX=0.5;exitY=0;exitDx=0;exitDy=0;entryX=0.5;entryY=1;entryDx=0;entryDy=0;" edge="1" parent="1" source="S-cmoG2ieqaU_YxU0t9z-7" target="U21YtgEmPUKUvigjnbzT-1">
          <mxGeometry relative="1" as="geometry" />
        </mxCell>
        <mxCell id="S-cmoG2ieqaU_YxU0t9z-7" value="&lt;b&gt;&lt;font style=&quot;font-size: 15px;&quot;&gt;BasePage&lt;/font&gt;&lt;/b&gt;" style="rounded=1;whiteSpace=wrap;html=1;" vertex="1" parent="1">
          <mxGeometry x="760" y="620" width="120" height="60" as="geometry" />
        </mxCell>
        <mxCell id="U21YtgEmPUKUvigjnbzT-6" style="edgeStyle=orthogonalEdgeStyle;rounded=0;orthogonalLoop=1;jettySize=auto;html=1;exitX=1;exitY=0.5;exitDx=0;exitDy=0;" edge="1" parent="1" source="S-cmoG2ieqaU_YxU0t9z-8" target="S-cmoG2ieqaU_YxU0t9z-3">
          <mxGeometry relative="1" as="geometry" />
        </mxCell>
        <mxCell id="S-cmoG2ieqaU_YxU0t9z-8" value="&lt;b style=&quot;font-size: 15px;&quot;&gt;Helpers&lt;/b&gt;" style="rounded=1;whiteSpace=wrap;html=1;" vertex="1" parent="1">
          <mxGeometry x="160" y="340" width="120" height="60" as="geometry" />
        </mxCell>
        <mxCell id="U21YtgEmPUKUvigjnbzT-5" style="edgeStyle=orthogonalEdgeStyle;rounded=0;orthogonalLoop=1;jettySize=auto;html=1;exitX=0;exitY=0.5;exitDx=0;exitDy=0;entryX=1;entryY=0.5;entryDx=0;entryDy=0;" edge="1" parent="1" source="S-cmoG2ieqaU_YxU0t9z-9" target="S-cmoG2ieqaU_YxU0t9z-3">
          <mxGeometry relative="1" as="geometry" />
        </mxCell>
        <mxCell id="S-cmoG2ieqaU_YxU0t9z-9" value="&lt;b&gt;&lt;font style=&quot;font-size: 15px;&quot;&gt;App.data&lt;/font&gt;&lt;/b&gt;" style="rounded=1;whiteSpace=wrap;html=1;" vertex="1" parent="1">
          <mxGeometry x="560" y="340" width="120" height="60" as="geometry" />
        </mxCell>
        <mxCell id="S-cmoG2ieqaU_YxU0t9z-27" value="" style="swimlane;startSize=0;strokeColor=#FF1239;strokeWidth=3;" vertex="1" parent="1">
          <mxGeometry x="120" y="590" width="800" height="120" as="geometry" />
        </mxCell>
        <mxCell id="FFIsN4_KHC2Kgvn_Q-gw-1" value="&lt;b&gt;Kế thừa&lt;/b&gt;" style="text;html=1;align=center;verticalAlign=middle;whiteSpace=wrap;rounded=0;" vertex="1" parent="S-cmoG2ieqaU_YxU0t9z-27">
          <mxGeometry x="375" y="45" width="50" height="30" as="geometry" />
        </mxCell>
        <mxCell id="S-cmoG2ieqaU_YxU0t9z-28" value="" style="swimlane;startSize=0;strokeColor=#FF173E;strokeWidth=3;" vertex="1" parent="1">
          <mxGeometry x="340" y="320" width="160" height="100" as="geometry" />
        </mxCell>
        <mxCell id="S-cmoG2ieqaU_YxU0t9z-30" value="&lt;b&gt;&lt;font style=&quot;font-size: 15px;&quot;&gt;Spces&lt;/font&gt;&lt;/b&gt;" style="text;html=1;align=center;verticalAlign=middle;whiteSpace=wrap;rounded=0;" vertex="1" parent="1">
          <mxGeometry x="440" y="290" width="60" height="30" as="geometry" />
        </mxCell>
        <mxCell id="S-cmoG2ieqaU_YxU0t9z-31" value="&lt;b&gt;&lt;font style=&quot;font-size: 15px;&quot;&gt;PageObject&lt;/font&gt;&lt;/b&gt;" style="text;html=1;align=center;verticalAlign=middle;whiteSpace=wrap;rounded=0;" vertex="1" parent="1">
          <mxGeometry x="850" y="560" width="60" height="30" as="geometry" />
        </mxCell>
        <mxCell id="U21YtgEmPUKUvigjnbzT-11" style="edgeStyle=orthogonalEdgeStyle;rounded=0;orthogonalLoop=1;jettySize=auto;html=1;exitX=0.5;exitY=0;exitDx=0;exitDy=0;entryX=0.5;entryY=1;entryDx=0;entryDy=0;" edge="1" parent="1" source="U21YtgEmPUKUvigjnbzT-1" target="S-cmoG2ieqaU_YxU0t9z-3">
          <mxGeometry relative="1" as="geometry" />
        </mxCell>
        <mxCell id="U21YtgEmPUKUvigjnbzT-1" value="&lt;b&gt;&lt;font style=&quot;font-size: 15px;&quot;&gt;Page Object Factory&lt;/font&gt;&lt;/b&gt;" style="rounded=1;whiteSpace=wrap;html=1;" vertex="1" parent="1">
          <mxGeometry x="320" y="470" width="200" height="60" as="geometry" />
        </mxCell>
        <mxCell id="x25g4mdXzBlVxST_02y2-2" style="edgeStyle=orthogonalEdgeStyle;rounded=0;orthogonalLoop=1;jettySize=auto;html=1;exitX=0.5;exitY=0;exitDx=0;exitDy=0;entryX=0.5;entryY=1;entryDx=0;entryDy=0;" edge="1" parent="1" source="x25g4mdXzBlVxST_02y2-1" target="S-cmoG2ieqaU_YxU0t9z-1">
          <mxGeometry relative="1" as="geometry" />
        </mxCell>
        <mxCell id="x25g4mdXzBlVxST_02y2-1" value="&lt;font style=&quot;font-size: 15px;&quot;&gt;&lt;b&gt;Test Case&lt;/b&gt;&lt;/font&gt;" style="rounded=1;whiteSpace=wrap;html=1;" vertex="1" parent="1">
          <mxGeometry x="360" y="920" width="120" height="60" as="geometry" />
        </mxCell>
      </root>
    </mxGraphModel>
  </diagram>
</mxfile>
